<svg height="503pt" viewBox="0 -39 503.79112 503" width="503pt" xmlns="http://www.w3.org/2000/svg"><path d="m11.84375 117.421875c7.828125 84.394531 6.785156 98.355469 4.871094 105.863281-.660156 2.332032-1.441406 4.628906-2.34375 6.878906-2.738282 5.757813-3.941406 12.128907-3.496094 18.492188-6.898438 6.335938-10.8359375 15.265625-10.875 24.628906v77.136719c-.00390625 3.957031 2.761719 7.378906 6.628906 8.207031l115.722656 24.824219c.847657.15625 1.671876.421875 2.453126.785156l78.484374 31.316407c1.046876.417968 2.117188.777343 3.203126 1.074218.085937.039063.179687.058594.269531.09375 1.875.582032 3.804687.964844 5.757812 1.140625l79.179688 7.972657c1.113281.109374 2.222656.125 3.335937.125h92.15625c3.542969-.015626 7.0625-.589844 10.425782-1.699219l.222656-.082031c2.488281-.796876 4.867187-1.90625 7.078125-3.300782l94.511719-54.808594c2.582031-1.503906 4.175781-4.265624 4.175781-7.253906v-96.691406c.011719-16.332031-11.753907-30.292969-27.851563-33.046875l-123.902344-20.402344c-1.820312-4.511719-3.109374-9.222656-3.835937-14.03125-1.132813-9.402343-1.402344-25.167969-1.617187-40.761719 19.824218-5.726562 40.203124-9.328124 60.789062-10.742187 9.238281 5.960937 19.980469 9.179687 30.972656 9.285156 9.007813-.113281 18.003906.605469 26.878906 2.148438 2.058594.445312 4.15625.691406 6.261719.730469 1.761719-.015626 3.523438-.1875 5.253907-.519532 10.679687-2.027344 21.65625-16.839844 25.886718-23.113281.046875-.070313.0625-.152344.109375-.226563.136719-.21875.21875-.46875.332031-.703124.304688-.582032.535157-1.195313.695313-1.832032.03125-.136718.117187-.246094.144531-.386718.03125-.15625-.027344-.296876-.007812-.449219.113281-.820313.101562-1.652344-.035156-2.46875-.03125-.183594-.023438-.367188-.066407-.546875-.191406-.847656-.511719-1.65625-.957031-2.402344-7.144531-11.882812-15.226562-26.007812-16.375-29.066406-3.171875-8.519532-19.304688-34.363282-55.296875-51.488282-21.570313-10.222656-62.789063-16.710937-94.125-20.398437-19.914063-10.035156-42.207031-14.386719-64.433594-12.574219l-9.375 1.179688c-32.902343 4.195312-34.875 4.449218-97.753906-5.34375-76.640625-11.921875-125.3125-.488282-144.640625 33.992187l-1.121094 2.015625c-14.75 26.347656-31.273437 56.035156-7.691406 76.449219zm15.550781 128.480469c.335938-3.398438 1.242188-6.714844 2.679688-9.8125 1.125-2.828125 2.09375-5.71875 2.902343-8.65625 2.019532-7.914063 3.148438-18.484375-.5-66.046875.820313 1.335937 1.644532 2.667969 2.554688 3.875 1.714844 2.285156 3.28125 4.3125 4.722656 6.175781 9.09375 9.839844 14.136719 22.746094 14.121094 36.140625l1.859375 17.265625c1.144531 10.476562 2.171875 18.519531 3.164063 24.824219-8.882813.09375-17.753907-.640625-26.5-2.191407-1.753907-.199218-3.453126-.734374-5.003907-1.574218zm375.492188 156.765625v-7.734375c0-4.632813-3.757813-8.390625-8.394531-8.390625-4.636719 0-8.394532 3.757812-8.394532 8.390625v14.242187h-91.066406c-.566406-.003906-1.148438.011719-1.679688-.039062l-75.121093-7.566407v-15.027343c0-4.636719-3.757813-8.394531-8.394531-8.394531-4.636719 0-8.394532 3.757812-8.394532 8.394531v10.210937l-67.144531-26.792968v-8.597657c0-4.632812-3.757813-8.390625-8.394531-8.390625-4.636719 0-8.394532 3.757813-8.394532 8.390625v3.890625l-100.722656-21.613281v-33.53125l105.566406 22.644531c.847657.160156 1.667969.425782 2.453126.789063l78.484374 31.316406c2.929688 1.265625 6.050782 2.046875 9.234376 2.308594l79.179687 7.972656c1.113281.109375 2.222656.121094 3.335937.121094h92.152344c6.269532.035156 12.421875-1.726563 17.726563-5.070313l81.902343-47.5v31.289063zm70.066406-157.042969c8.019531 1.390625 13.875 8.355469 13.867187 16.5v41.15625l-90.664062 52.59375c-2.675781 1.710938-5.789062 2.617188-8.964844 2.605469h-92.160156c-.566406 0-1.148438.011719-1.679688-.042969l-79.394531-7.996094c-1.480469-.117187-2.925781-.492187-4.28125-1.101562l-78.402343-31.285156c-1.824219-.816407-3.742188-1.414063-5.707032-1.773438l-108.78125-23.339844v-19.65625c-.007812-4.378906 1.710938-8.582031 4.785156-11.699218 2.535157 1.140624 5.207032 1.957031 7.945313 2.425781 9.070313 1.585937 18.253906 2.414062 27.460937 2.476562 1.914063 0 3.792969-.074219 5.644532-.167969.71875 2.277344 1.941406 4.363282 3.574218 6.101563 6.96875 6.96875 26.246094 10.097656 37.714844 10.097656 13.664063 0 39.097656 0 40.113282-19.09375.414062-4.886719-1.789063-9.628906-5.789063-12.464843l28.984375-1.523438c.074219-.003906.871094-.070312.945312-.082031.660157-.035157 1.320313-.113281 1.972657-.242188l18.203125-2.59375c-3.738282 6.984375-4.128906 15.277344-1.0625 22.578125 3.765625 5.703125 9.957031 9.34375 16.769531 9.859375 9.058594 1.539063 18.222656 2.359375 27.410156 2.449219 9.738281.75 19.480469-1.425781 27.976563-6.246094 3.351562-2.417968 5.507812-6.152344 5.925781-10.265625 1.113281-11.066406-9.53125-14.902343-14.648437-16.746093-1.636719-.546876-3.234376-1.203126-4.785157-1.960938.210938-.636719.472657-1.253906.78125-1.847656 1.128907-2.238282 2.269531-4.453125 3.421875-6.640625l36.292969-5.183594c10.972656 17.757813 35.300781 51.402344 53.003906 53.550781 8.191407 1.046875 16.433594 1.605469 24.691407 1.667969 12.109374.925781 24.21875-1.839844 34.726562-7.933594 7.277344-4.042969 10.855469-12.523437 8.679688-20.558593-2.425782-7.15625-10.859376-15.414063-36.875-15.414063h-.148438c-2.796875-4.226563-6.460938-10.164063-10.03125-16.730469zm-349.96875-20.890625c5.285156-13.371094 9.796875-27.035156 13.511719-40.925781 11.242187.796875 25.953125 1.621094 38.933594 1.621094 5.753906 0 11.15625-.160157 15.738281-.558594 2.726562-.238282 5.75-.714844 8.914062-1.3125-2.148437 14.664062-4.96875 33.558594-7.03125 45.335937l-25.792969 3.695313-47.964843 2.550781c.398437-1.34375.828125-2.734375 1.425781-4.375.550781-1.535156 1.332031-3.574219 2.265625-6.03125zm122.816406-55.199219c2.175781 5.777344 5.199219 11.203125 8.96875 16.09375 2.28125 2.484375 4.8125 5.5 7.367188 8.71875-13.050781 11.800782-23.417969 26.265625-30.40625 42.410156-2.855469 4.742188-3.476563 10.5-1.699219 15.738282 2.851562 5.617187 8.03125 9.691406 14.15625 11.144531-12.414062 1.601563-25.003906 1.1875-37.285156-1.226563-1.753906-.199218-3.453125-.734374-5.007813-1.570312.335938-3.398438 1.242188-6.714844 2.679688-9.8125 1.125-2.828125 2.09375-5.71875 2.902343-8.65625 2.097657-8.226562 6.339844-36.679688 10.21875-63.246094 8.378907-2.449218 17.875-5.691406 28.105469-9.59375zm26.304688 38.324219c1.863281 2.738281 3.785156 5.707031 5.632812 8.941406l-16.207031 2.3125c3.050781-4.171875 6.601562-7.949219 10.574219-11.253906zm-237.925781-158.691406 1.125-2.015625c19.359374-34.535156 79.957031-32.984375 127.417968-25.597656 63.710938 9.914062 67.835938 9.820312 102.449219 5.40625l9.296875-1.175782c19.539062-1.402344 39.085938 2.632813 56.472656 11.660156 7.375 3.480469 14.429688 7.605469 21.078125 12.324219 1.78125 1.335938 4.019531 1.910157 6.222657 1.59375 2.203124-.316406 4.191406-1.492187 5.523437-3.273437 1.167969-1.597656 1.726563-3.558594 1.570313-5.53125 12.058593 1.921875 22.738281 4.007812 31.925781 6.207031-6.4375 1.472656-12.058594 5.375-15.699219 10.886719-5.476562 9.253906-4.53125 20.957031 2.363281 29.207031 1.710938 2.464844 4.605469 3.828125 7.59375 3.574219 2.988281-.25 5.617188-2.074219 6.894531-4.789063 1.277344-2.714843 1.007813-5.902343-.703124-8.367187-1.382813-1.984375-4.351563-6.980469-2.082032-10.453125 1.765625-2.632813 4.800782-4.121094 7.960938-3.902344 6.472656.789063 7.605468 8.320313 7.695312 12.742187.097656 4.566407 3.828125 8.214844 8.394532 8.214844h.179687c4.632813-.109375 8.304687-3.945312 8.207031-8.578125.105469-7.898437-2.695312-15.558593-7.867187-21.523437 1.207031.492187 2.53125.984375 3.585937 1.484375 19.847656 8.480469 36.308594 23.324219 46.78125 42.195312 2.511719 5.527344 5.335938 10.902344 8.460938 16.109375-4.234375-.382812-8.070313 2.515625-8.855469 6.695313-.40625 2.1875.070313 4.449219 1.328125 6.285156 1.261719 1.835937 3.199219 3.097656 5.386719 3.503906l3.296875.617188c-1.847656 2.28125-4.117188 4.183593-6.683594 5.609375-1.796875.378906-3.660156.308594-5.425781-.210938-9.773438-1.71875-19.683594-2.53125-29.605469-2.425781-8.644531.007813-17.074219-2.695313-24.097656-7.730469-4.363282-3.21875-8.019532-7.300781-10.738282-11.992187-2.035156-4.164063-7.066406-5.890625-11.230468-3.851563-4.164063 2.035156-5.890625 7.0625-3.851563 11.230469.761719 1.480469 1.621094 2.910156 2.566407 4.28125-15.15625 2.015625-30.167969 5.019531-44.933594 8.988281.652344-11.890625-.425782-23.816406-3.207032-35.394531-1.769531-4.207031-6.605468-6.191406-10.820312-4.4375-4.257812 1.765625-6.328125 6.605469-4.664062 10.90625 1.667968 13.273437 2.347656 26.65625 2.035156 40.035156l.054687 4.101563c.230469 16.773437.46875 34.125 1.773438 44.894531 3.074219 25.144531 26.910156 59.054687 27.917969 60.484375 1.640624 2.300781 4.328124 3.632812 7.152343 3.539062 8.417969-1.179687 16.996094.078126 24.714844 3.628907-.597656.6875-1.28125 1.292969-2.03125 1.800781-4.042969 2.886719-15.589844 7.144531-47.664063 3.28125-9.515624-1.15625-36.796874-36.03125-45.058593-53.210938-3.9375-7.992187-8.59375-15.609374-13.910157-22.761718-.097656-.480469-.242187-.953125-.425781-1.410156-.667969-1.207032-1.636719-2.226563-2.804687-2.960938-4.03125-5.390625-8.34375-10.675781-12.070313-14.742188-3.746093-5.835937-6.792969-12.089843-9.085937-18.632812l-.070313-.167969c-9.355469-21.984375-20.519531-53.578125-20.625-53.894531-1.539062-4.375-6.335937-6.667969-10.707031-5.125-4.375 1.539062-6.667969 6.335938-5.128906 10.707031.414062 1.160157 9.078125 25.695313 17.6875 46.871094-11.582032 4.40625-22.226563 7.96875-31.140625 10.355469l-.140625.039062-.074219.023438c-5.933594 1.769531-12.015625 2.996094-18.171875 3.65625-16.578125.769531-33.1875.464844-49.726562-.910156 3.128906-14.660157 2.960937-29.828126-.484376-44.417969l-9.988281-34.664063c-.832031-2.878906-3.136719-5.101562-6.046875-5.824218-2.910156-.71875-5.984375.164062-8.066406 2.324218-2.078125 2.160156-2.847656 5.265625-2.019531 8.148438l9.988281 34.664062c3.117188 14.738282 2.695312 30.007813-1.238281 44.550782-.132813.351562-.238281.710937-.320313 1.082031-3.726562 15.546875-8.578125 30.804687-14.515625 45.652343-1 2.613282-1.828125 4.78125-2.375 6.34375-5.753906 15.800782-5.558593 26.480469.605469 32.640626 3.488281 2.714843 7.792969 4.160156 12.210938 4.097656 2.878906.28125 5.726562.78125 8.527343 1.503906-7.242187 2.179688-14.824219 2.996094-22.359375 2.402344-8.734375.070312-17.390625-1.601563-25.46875-4.921875-3.273437-12.351563-5.292968-25-6.023437-37.757813l-1.847657-17.25c-.335937-16.496094-6.558593-32.328125-17.542968-44.640625-1.394532-1.804687-2.917969-3.769531-4.582032-5.992187-7.027343-11.78125-11.300781-24.996094-12.492187-38.660156-.769531-5.546876-1.015625-9.351563-1.023437-9.5-.199219-3.410157-2.449219-6.359376-5.683594-7.449219-3.238282-1.089844-6.816406-.101563-9.03125 2.496093-8.09375-10.453124-1.160156-25.886718 13.964844-52.902343zm0 0"/><path d="m453.246094 98.617188c0 4.636718-3.757813 8.394531-8.394532 8.394531-4.632812 0-8.390624-3.757813-8.390624-8.394531 0-4.632813 3.757812-8.390626 8.390624-8.390626 4.636719 0 8.394532 3.757813 8.394532 8.390626zm0 0"/></svg>